<svg id="Camada_1" data-name="Camada 1" xmlns="http://www.w3.org/2000/svg" xmlns:xlink="http://www.w3.org/1999/xlink" viewBox="0 0 446.84 161.86"><defs><style>.cls-1{fill:none;}.cls-2{clip-path:url(#clip-path);}.cls-3{fill:#ffffff;}</style><clipPath id="clip-path"><rect class="cls-1" width="446.84" height="161.86"/></clipPath></defs><title>Prancheta 7</title><g class="cls-2"><polygon class="cls-3" points="108.17 98.7 108.17 49.85 116.54 49.85 116.54 73.79 138.73 49.85 149.34 49.85 130.22 69.88 150.74 98.7 140.48 98.7 124.43 75.95 116.54 84.18 116.54 98.7 108.17 98.7"/><g class="cls-2"><path class="cls-3" d="M178.32,98.72l2.55-10.27-1.15-.11s-2.53,11.25-14,11.25c-8.83,0-13.9-4.24-13.83-11.15.07-8.65,8.65-10.47,15.84-11.3,5.58-.63,9.7-.84,9.77-3.77-.07-3.63-2.86-6-7.61-6S161.48,70,161,73.86h-8.31C153.45,66,160.43,60.6,170,60.6c10,0,15.49,5.44,15.49,13.33V98.7Zm-.86-19.07h0c-1.4,2.16-5,2.65-8.86,3.14-4.61.56-8.45,1.19-8.45,5.09,0,3.21,2.58,5.1,7.4,5.1,4,0,6.81-3.48,8.46-6.85a14.65,14.65,0,0,0,1.45-6.48"/><path class="cls-3" d="M190.94,98.7v-37h7.31l-3.41,9.34,1.07.25c2.3-3.63,4.49-11,14.32-11a12.59,12.59,0,0,1,11.63,7.2c2.09-3.91,6.83-6.91,12.7-6.91,7.74,0,12.7,5.51,12.7,13.47V98.7H239V74.48c0-4.11-2.51-6.76-6.49-6.76-5.65,0-9.21,3.69-9.28,8.58V98.7H215V74.48c0-4.11-2.51-6.76-6.49-6.76-5.66,0-9.21,3.69-9.28,8.58V98.7Z"/><path class="cls-3" d="M259.17,88.47l-.73.06.9,10.23h-6.62V49.86h7.75l-.74,15.85-1.16,4.12.91.07c2.67-4.11,4.84-9.24,13.75-9.24,9.77,0,16.68,8,16.68,19.4,0,11.65-6.92,20.25-16.75,19.75-9.44-.48-11.69-6.67-14-11.34m22.3-8.41c0-7.33-4.12-12.42-10.12-12.42s-10.4,5-10.4,12.21c0,7.6,4.33,13,10.4,13s10.12-5.24,10.12-12.77"/><path class="cls-3" d="M338.73,98.81V71.48h-6.49v-7h6.49V59.89c0-7,4.12-10.75,11.79-10.75h8v7h-7.47c-2.65,0-4.11,1.54-4.11,4.33v4h10.74v7H347V98.81Z"/><path class="cls-3" d="M363.53,112.72v-7h6.7a8.11,8.11,0,0,0,4.34-1.14,2.76,2.76,0,0,0,1-3.18L361.25,61.77h8.56l9.19,25-1.84,4,1.79.7,11.87-29.73h8.58l-16.12,43.34c-1.88,5-5.79,7.61-13,7.61Z"/><path class="cls-3" d="M320.25,98.78l2.55-10.27-1.15-.11s-2.53,11.25-14,11.25c-8.83,0-13.9-4.24-13.83-11.15.07-8.65,8.65-10.47,15.84-11.3,5.58-.63,9.7-.84,9.77-3.77-.07-3.63-2.86-6-7.61-6s-8.37,2.65-8.86,6.49h-8.31c.77-7.82,7.75-13.26,17.31-13.26,10,0,15.49,5.44,15.49,13.33V98.76Zm-.86-19.07h0c-1.4,2.16-5,2.65-8.86,3.14-4.61.56-8.45,1.19-8.45,5.09,0,3.21,2.58,5.1,7.4,5.1,4,0,6.81-3.48,8.46-6.85a14.65,14.65,0,0,0,1.45-6.48"/><path class="cls-3" d="M88.94,91.93l-14-17.29L88.88,57.43l5.92-7.32H47.43V99.25H94.87Zm-34.18,0V57.43H79.45L70.23,68.82l-.07.09a7.64,7.64,0,1,0,0,11.5l0,0,9.29,11.47ZM68.25,74.68a3.07,3.07,0,0,1-.92,2.2,3.11,3.11,0,0,1-2.16.88,3.1,3.1,0,0,1-3.09-3.08,3.09,3.09,0,1,1,6.17,0"/></g></g></svg>