<?xml version="1.0" encoding="UTF-8"?>
<svg version="1.1" xmlns="http://www.w3.org/2000/svg" width="512" height="512">
<path d="M0 0 C1.4238485 -0.00374361 2.84769495 -0.00834795 4.2715382 -0.01373065 C8.15690276 -0.02588851 12.04218076 -0.02570875 15.92755997 -0.02334189 C20.12885413 -0.02293188 24.33012122 -0.03399047 28.53140259 -0.04345703 C36.75294543 -0.060029 44.97445959 -0.06556488 53.19601775 -0.06668179 C59.88420169 -0.06763419 66.57237622 -0.07175407 73.26055717 -0.07808304 C92.25117522 -0.09568607 111.24177071 -0.10492353 130.23239697 -0.10342209 C131.25494898 -0.10334218 132.27750099 -0.10326227 133.33103943 -0.10317993 C134.35485004 -0.10309817 135.37866064 -0.10301641 136.43349581 -0.10293217 C153.01378229 -0.10211982 169.5939778 -0.121247 186.17423797 -0.14945666 C203.22656672 -0.17823893 220.27885119 -0.19199398 237.33120483 -0.19026911 C246.89354702 -0.18960699 256.45579388 -0.19502077 266.01811409 -0.21662521 C274.16184989 -0.2349076 282.30544716 -0.23912684 290.44919468 -0.22560637 C294.59731888 -0.21911176 298.74517785 -0.21883105 302.89327621 -0.23631287 C333.48277748 -0.35705764 359.86285925 2.55964058 382.91282654 24.95492554 C401.6422742 43.92265357 407.8278081 68.1734298 407.79653931 94.16322327 C407.79841006 95.56344581 407.80071181 96.96366783 407.80340463 98.36388904 C407.80949645 102.19306741 407.80939213 106.02222387 407.80821025 109.85140598 C407.80800558 113.98857193 407.81353136 118.12573097 407.81826782 122.26289368 C407.8265607 130.36171085 407.82932205 138.46052074 407.8298802 146.55934181 C407.83035603 153.1455835 407.83241414 159.7318228 407.83558083 166.31806374 C407.84438389 185.00873199 407.84900078 203.69939451 407.84825035 222.39006486 C407.84819042 223.90028247 407.84819042 223.90028247 407.84812927 225.44100952 C407.84808839 226.44905668 407.84804751 227.45710385 407.84800539 228.49569789 C407.84759908 244.82659007 407.85716579 261.15745918 407.87126764 277.48834469 C407.88564723 294.27390306 407.89253694 311.05945019 407.89167386 327.84501487 C407.89134243 337.26191261 407.89406603 346.67878616 407.90485191 356.09567833 C407.91397778 364.11438097 407.91611509 372.13304845 407.90934249 380.15175404 C407.90608772 384.23853834 407.90598267 388.32525528 407.91469574 392.41203308 C407.92260814 396.16202123 407.92108146 399.91188913 407.91241161 403.66187451 C407.91017139 405.64238234 407.9176679 407.62289405 407.92565125 409.60338706 C407.83593339 433.1444747 401.58194673 454.46352791 385.66282654 472.26742554 C384.92419373 473.10015991 384.18556091 473.93289429 383.42454529 474.79086304 C368.891471 490.25158036 349.11211914 498.93001546 328.02595139 500.54617572 C324.28911251 500.64954898 320.56265919 500.66773411 316.82444763 500.64837646 C315.39500765 500.65184363 313.96557036 500.65661523 312.53613853 500.6625582 C308.6539688 500.67495267 304.77202347 500.66895128 300.88985348 500.65959954 C296.68527733 500.6527614 292.48073754 500.66331369 288.27616882 500.67153931 C280.05749583 500.68482839 271.83890537 500.68202052 263.62022924 500.67330138 C256.9364031 500.66650616 250.25259997 500.66561604 243.56877136 500.66887283 C242.13790367 500.66956238 242.13790367 500.66956238 240.67812955 500.67026586 C238.73983653 500.67122511 236.80154351 500.67219775 234.86325049 500.67318363 C216.71884079 500.6817234 198.57447668 500.67192563 180.43007445 500.65578254 C164.88589088 500.64238065 149.34177453 500.64470914 133.79759216 500.65853882 C115.71488401 500.67461966 97.63221573 500.68089955 79.54950142 500.67170203 C77.61862819 500.67074645 75.68775496 500.66980334 73.75688171 500.66887283 C72.33211173 500.66817859 72.33211173 500.66817859 70.87855852 500.66747033 C64.2083918 500.66488795 57.53825054 500.66923517 50.86808777 500.67631149 C42.73132681 500.68475457 34.59465259 500.6823876 26.45790148 500.66646926 C22.31219495 500.65862417 18.16663266 500.65543015 14.02092743 500.66541672 C10.21617123 500.67444287 6.41169119 500.66930252 2.60695958 500.65348406 C0.5996434 500.64861523 -1.40769239 500.65826134 -3.41498756 500.66865575 C-28.0218994 500.51161968 -49.67737944 491.34077656 -67.33717346 474.26742554 C-84.24159034 456.4793039 -90.66719821 433.89752123 -90.59786987 409.83413696 C-90.60089595 408.3999012 -90.6047877 406.96566706 -90.60946244 405.53143573 C-90.61969265 401.6174719 -90.61757339 397.70360019 -90.61328185 393.78962898 C-90.6108055 389.55772046 -90.61984009 385.32583359 -90.62731934 381.09393311 C-90.64004364 372.81323465 -90.64186282 364.53256866 -90.63951907 356.25186208 C-90.63773304 349.51740949 -90.63949167 342.78296673 -90.64374352 336.04851532 C-90.6443387 335.08851084 -90.64493389 334.12850636 -90.64554712 333.13941084 C-90.64675893 331.18887768 -90.64797306 329.23834452 -90.64918949 327.28781137 C-90.66005651 309.01085496 -90.65790664 290.73391702 -90.65180465 272.45695958 C-90.64663751 255.75826471 -90.65788708 239.05962822 -90.67690287 222.3609449 C-90.69630316 205.1922403 -90.70453335 188.02356329 -90.70077962 170.85484767 C-90.69887074 161.22499212 -90.70132447 151.59518623 -90.71549416 141.96533966 C-90.72743695 133.76627132 -90.72878051 125.56728319 -90.71670399 117.36821368 C-90.71083531 113.19012705 -90.70965976 109.01218694 -90.72170639 104.83411026 C-90.73263332 100.99959467 -90.72938197 97.16534673 -90.71544471 93.3308433 C-90.71158374 91.30742538 -90.722289 89.28399525 -90.73374158 87.26060605 C-90.59001344 62.62356424 -81.4338374 40.95133324 -64.33717346 23.26742554 C-46.58215319 6.39446556 -24.02320673 -0.05714877 0 0 Z " fill="#EF7E09" transform="translate(97.33717346191406,5.732574462890625)"/>
<path d="M0 0 C0.93328125 -0.03738281 1.8665625 -0.07476562 2.828125 -0.11328125 C8.75059875 0.74975303 12.86134829 5.17830938 16.9296875 9.296875 C17.8578125 10.23144531 18.7859375 11.16601562 19.7421875 12.12890625 C20.70323683 13.10666093 21.66417296 14.08452688 22.625 15.0625 C23.6089068 16.05645327 24.59327783 17.04994722 25.578125 18.04296875 C27.97334794 20.46167427 30.36376276 22.88493438 32.75 25.3125 C35.6635392 24.20076288 38.11342595 23.0852414 40.7734375 21.421875 C45.93281904 18.41711363 51.646388 17.09495304 57.375 15.5625 C58.47457031 15.24667969 59.57414063 14.93085937 60.70703125 14.60546875 C69.27043064 12.2864239 78.95446726 10.12506401 87.3125 13.9375 C91.12432443 17.65158534 93.93074426 20.94170731 94.20410156 26.39013672 C94.20347547 27.92429943 94.18130256 29.45856402 94.140625 30.9921875 C94.13496521 31.80495148 94.12930542 32.61771545 94.12347412 33.45510864 C94.10120838 36.03318945 94.05103315 38.60984431 94 41.1875 C93.9799222 42.94268816 93.96167367 44.69789826 93.9453125 46.453125 C93.90137612 50.74012689 93.83241911 55.02607227 93.75 59.3125 C95.01424805 59.29413086 96.27849609 59.27576172 97.58105469 59.25683594 C103.85188255 59.16572271 108.43532629 62.27309687 113.75 65.3125 C114.54180664 65.75770996 115.33361328 66.20291992 116.14941406 66.66162109 C118.81961449 68.17166892 121.47405404 69.7064234 124.125 71.25 C124.98125977 71.73952148 125.83751953 72.22904297 126.71972656 72.73339844 C132.58470016 76.221115 137.63777994 80.08805988 140.75 86.3125 C141.05859375 88.4140625 141.05859375 88.4140625 141.1875 90.9375 C141.24808594 91.75476563 141.30867187 92.57203125 141.37109375 93.4140625 C139.55055343 101.90991731 130.81316819 108.49059113 124.875 114.3125 C123.99585938 115.18261719 123.11671875 116.05273438 122.2109375 116.94921875 C120.0618143 119.07498191 117.90814069 121.19589889 115.75 123.3125 C116.21583496 124.12058105 116.68166992 124.92866211 117.16162109 125.76123047 C121.62813704 133.67836448 124.29984933 141.80303486 126.6875 150.5625 C126.99373291 151.66255371 127.29996582 152.76260742 127.61547852 153.89599609 C131.68511589 169.44226822 131.68511589 169.44226822 128.0625 176.6875 C125.28604336 179.83915348 122.52376371 182.42561814 118.75 184.3125 C116.05106819 184.39925538 113.37830769 184.42807897 110.6796875 184.41015625 C109.88345978 184.4087413 109.08723206 184.40732635 108.26687622 184.40586853 C105.7195462 184.40026345 103.17230353 184.38771014 100.625 184.375 C98.89974085 184.36998565 97.17448033 184.36542263 95.44921875 184.36132812 C91.21611209 184.35029237 86.98307086 184.33302436 82.75 184.3125 C82.78287109 185.36993408 82.81574219 186.42736816 82.84960938 187.5168457 C82.6063915 196.78475808 76.91448217 204.88788274 72.25 212.625 C71.68152344 213.58728516 71.11304688 214.54957031 70.52734375 215.54101562 C62.79025308 228.5109646 62.79025308 228.5109646 56.75 231.3125 C53.69921875 231.8515625 53.69921875 231.8515625 50.4375 231.9375 C48.83455078 232.01871094 48.83455078 232.01871094 47.19921875 232.1015625 C38.11126091 230.02255063 31.31117383 219.67552494 25.31054688 213.01367188 C24.29637695 211.91055664 24.29637695 211.91055664 23.26171875 210.78515625 C22.65803467 210.11750244 22.05435059 209.44984863 21.43237305 208.76196289 C19.74130908 206.98614112 19.74130908 206.98614112 16.75 207.3125 C14.80971998 208.30176509 14.80971998 208.30176509 12.7578125 209.61328125 C7.58695678 212.58165795 2.38123821 214.06290906 -3.375 215.5 C-5.27348739 215.99329761 -7.17192602 216.48678294 -9.0703125 216.98046875 C-9.96274658 217.20702148 -10.85518066 217.43357422 -11.7746582 217.66699219 C-13.90447013 218.22239437 -16.00703062 218.82746705 -18.11328125 219.46484375 C-23.95698089 221.04402535 -29.1470955 221.36395225 -34.625 218.625 C-38.17034678 215.50171832 -40.74393863 212.83068411 -42.25 208.3125 C-42.33507079 205.5809044 -42.36591565 202.87558557 -42.34765625 200.14453125 C-42.3462413 199.34971848 -42.34482635 198.5549057 -42.34336853 197.73600769 C-42.33777378 195.19896675 -42.32522228 192.66201425 -42.3125 190.125 C-42.30748432 188.40429815 -42.30292153 186.68359492 -42.29882812 184.96289062 C-42.28780607 180.7460597 -42.27054506 176.52929484 -42.25 172.3125 C-43.32088867 172.33344727 -44.39177734 172.35439453 -45.49511719 172.37597656 C-54.79834767 172.21870479 -62.37900188 167.28266763 -70.18994141 162.63476562 C-72.00108609 161.56185661 -73.82572851 160.51504932 -75.65234375 159.46875 C-81.83802879 155.8590573 -86.92196177 152.80973827 -90.25 146.3125 C-90.984375 143.28515625 -90.984375 143.28515625 -91 140.375 C-91.05414063 138.93833984 -91.05414063 138.93833984 -91.109375 137.47265625 C-89.79443514 132.63726375 -86.70698391 129.83500222 -83.25 126.3125 C-82.50347168 125.54558838 -81.75694336 124.77867676 -80.98779297 123.98852539 C-78.61359656 121.57820738 -76.21737685 119.19218475 -73.8125 116.8125 C-72.98556641 115.99007812 -72.15863281 115.16765625 -71.30664062 114.3203125 C-69.29005041 112.31537887 -67.27114764 110.31283747 -65.25 108.3125 C-66.39640049 105.35128279 -67.61908204 102.54262626 -69.140625 99.7578125 C-75.31232322 87.53464395 -80.7883635 70.04832182 -78.25 56.3125 C-76.00246668 51.0982227 -72.42296758 48.46578135 -67.25 46.3125 C-64.37729391 45.81565503 -61.59972522 45.84195953 -58.69140625 45.921875 C-57.50767677 45.93036469 -57.50767677 45.93036469 -56.30003357 45.93902588 C-53.80354626 45.96124314 -51.30854625 46.01140781 -48.8125 46.0625 C-47.11004691 46.08258412 -45.40757111 46.10083153 -43.70507812 46.1171875 C-39.55282086 46.16105928 -35.40166172 46.22998092 -31.25 46.3125 C-31.27884277 45.23145996 -31.30768555 44.15041992 -31.33740234 43.03662109 C-31.23483236 38.66622316 -29.89704325 35.70066795 -27.875 31.9375 C-27.52066895 31.25776123 -27.16633789 30.57802246 -26.80126953 29.87768555 C-25.63937158 27.67671025 -24.44942721 25.49323354 -23.25 23.3125 C-22.83298828 22.54856934 -22.41597656 21.78463867 -21.98632812 20.99755859 C-20.71822931 18.69538985 -19.42734102 16.4079506 -18.125 14.125 C-17.73006348 13.41875488 -17.33512695 12.71250977 -16.92822266 11.98486328 C-12.9103406 5.11526091 -8.31222263 0.21575441 0 0 Z " fill="#FDF4EB" transform="translate(228.25,78.6875)"/>
<path d="M0 0 C8.36116846 4.9063801 13.98631788 12.15375185 17.3046875 21.23046875 C19.57233526 30.262841 18.55522815 38.91379619 14 47 C8.36088805 55.99920456 0.94437877 61.87188754 -9.40625 64.5234375 C-20.02195148 66.47391277 -28.55538372 64.27993689 -37.546875 58.30859375 C-44.40170463 52.79942698 -49.4296232 44.74682989 -51 36 C-51.81240078 26.17128231 -50.99493307 18.3527394 -45.01171875 10.3359375 C-33.03268586 -3.69132381 -17.14049092 -8.6238095 0 0 Z " fill="#EF800A" transform="translate(270,164)"/>
<path d="M0 0 C0.88141663 -0.01283524 1.76283325 -0.02567047 2.67095947 -0.03889465 C3.62613464 -0.04628159 4.58130981 -0.05366852 5.56542969 -0.0612793 C6.54719177 -0.06935104 7.52895386 -0.07742279 8.54046631 -0.08573914 C10.62184887 -0.09958597 12.70325419 -0.11030543 14.78466797 -0.11816406 C17.96072767 -0.1353542 21.13574042 -0.17923261 24.31152344 -0.22338867 C26.3336512 -0.23351754 28.35578781 -0.24203304 30.37792969 -0.2487793 C31.32500793 -0.26628738 32.27208618 -0.28379547 33.24786377 -0.30183411 C38.9159564 -0.2832861 42.28702369 0.30434245 46.73730469 4.17700195 C49.65979438 8.5607365 50.29682869 11.95477795 49.73730469 17.17700195 C47.74886351 22.51439669 44.83062821 25.63034019 39.73730469 28.17700195 C37.03837287 28.26375733 34.36561238 28.29258093 31.66699219 28.2746582 C30.87076447 28.27324326 30.07453674 28.27182831 29.25418091 28.27037048 C26.70685089 28.2647654 24.15960822 28.25221209 21.61230469 28.23950195 C19.88704554 28.23448761 18.16178501 28.22992459 16.43652344 28.22583008 C12.20341678 28.21479433 7.97037555 28.19752632 3.73730469 28.17700195 C3.73730469 25.86700195 3.73730469 23.55700195 3.73730469 21.17700195 C14.62730469 20.84700195 25.51730469 20.51700195 36.73730469 20.17700195 C37.91083658 16.65640627 37.93876871 13.87050895 37.73730469 10.17700195 C35.23988065 7.67957792 33.76012858 7.94023731 30.3525238 7.92475891 C29.2571505 7.93553719 29.2571505 7.93553719 28.13964844 7.9465332 C27.39018448 7.94699142 26.64072052 7.94744965 25.86854553 7.94792175 C24.284011 7.95094384 22.69947943 7.95882889 21.11499023 7.97119141 C18.68104611 7.98945512 16.24748207 7.99170106 13.81347656 7.99145508 C12.27636388 7.99636995 10.73925378 8.00219813 9.20214844 8.0090332 C8.46987534 8.01014603 7.73760223 8.01125885 6.98313904 8.0124054 C3.57207467 7.74215888 3.57207467 7.74215888 0.73730469 9.17700195 C0.64946927 11.3955546 0.6303586 13.61688692 0.63964844 15.8371582 C0.64177086 16.8338578 0.64177086 16.8338578 0.64393616 17.85069275 C0.64954951 19.98034094 0.66210415 22.10988535 0.67480469 24.23950195 C0.67981797 25.68025565 0.68438118 27.12101098 0.68847656 28.56176758 C0.69952324 32.10021297 0.71679677 35.63859734 0.73730469 39.17700195 C9.06459416 39.2001288 17.39187031 39.21791878 25.71918392 39.22881413 C29.58550586 39.23404221 33.4518059 39.24113849 37.31811523 39.25244141 C41.04633869 39.26327295 44.77454103 39.26927935 48.50277901 39.2718792 C49.92820125 39.27373296 51.35362227 39.27735266 52.77903557 39.28273201 C54.76893877 39.28994588 56.75886303 39.29041004 58.7487793 39.29052734 C60.45087807 39.29385826 60.45087807 39.29385826 62.18736267 39.29725647 C64.67189774 39.46674618 64.67189774 39.46674618 65.73730469 38.17700195 C65.84709862 36.10225572 65.89322623 34.02408759 65.91308594 31.9465332 C65.93693359 30.66842773 65.96078125 29.39032227 65.98535156 28.07348633 C66.02032978 26.03716678 66.04972561 24.00142574 66.06323242 21.96484375 C66.07881542 20.00018674 66.12070598 18.03579488 66.16308594 16.0715332 C66.17766846 14.89437744 66.19225098 13.71722168 66.20727539 12.50439453 C66.97473224 7.68649059 69.19132176 4.78229963 72.52539062 1.3203125 C75.7699468 -0.35675776 78.4943719 -0.15922344 82.12792969 -0.1159668 C83.18485016 -0.10959953 83.18485016 -0.10959953 84.26312256 -0.10310364 C86.5049118 -0.08636343 88.74578899 -0.04872209 90.98730469 -0.01049805 C92.51072917 0.00455491 94.03416779 0.01824226 95.55761719 0.03051758 C99.2844741 0.06352404 103.01080032 0.11527341 106.73730469 0.17700195 C106.73730469 2.81700195 106.73730469 5.45700195 106.73730469 8.17700195 C98.15730469 8.50700195 89.57730469 8.83700195 80.73730469 9.17700195 C79.33092645 11.98975842 79.60970612 14.36228205 79.59667969 17.50512695 C79.56767578 19.41745117 79.56767578 19.41745117 79.53808594 21.3684082 C79.50919891 23.39392766 79.48730678 25.41835345 79.48681641 27.4440918 C79.46502237 40.16246905 79.46502237 40.16246905 76.37792969 44.03637695 C72.163382 47.45290377 68.89014006 47.31791475 63.60717773 47.36987305 C62.52370056 47.38213928 62.52370056 47.38213928 61.41833496 47.39465332 C59.02857281 47.41946005 56.63886986 47.43601078 54.24902344 47.45043945 C53.43182138 47.45576313 52.61461933 47.46108681 51.77265358 47.46657181 C47.44748498 47.49328236 43.12234504 47.51266427 38.79711914 47.52709961 C35.22068724 47.54044147 31.64482555 47.56830081 28.06860352 47.60913086 C23.74678746 47.65847058 19.42548877 47.68322198 15.10340309 47.69032669 C13.45877242 47.69703472 11.81415309 47.71224531 10.16968346 47.7362175 C7.86438451 47.76790678 5.5610756 47.76790146 3.25561523 47.76049805 C1.94562057 47.7685849 0.63562592 47.77667175 -0.71406555 47.78500366 C-5.37391022 46.98661282 -6.94857272 45.49002203 -10.26269531 42.17700195 C-13.5483111 36.33207691 -12.71140069 29.31641924 -12.76269531 22.80200195 C-12.80394531 21.50004883 -12.84519531 20.1980957 -12.88769531 18.85668945 C-12.97519836 8.13756671 -12.97519836 8.13756671 -9.35644531 3.82543945 C-6.2968568 0.89907907 -4.21501265 0.05341027 0 0 Z " fill="#BB120C" transform="translate(322.2626953125,359.822998046875)"/>
<path d="M0 0 C0.9553212 -0.00524185 1.9106424 -0.0104837 2.89491272 -0.0158844 C4.91129588 -0.02229548 6.92771648 -0.02097945 8.9440918 -0.01245117 C12.02135136 -0.00394441 15.09675194 -0.0327104 18.17382812 -0.06445312 C20.1367182 -0.06606542 22.09961154 -0.06548706 24.0625 -0.0625 C24.9782933 -0.07373398 25.89408661 -0.08496796 26.83763123 -0.09654236 C32.42803236 -0.03586669 35.66980223 0.68908538 40.09765625 4.43359375 C43.24515136 8.10567138 43.6249214 11.4668943 43.4453125 16.15234375 C42.84577952 20.08635794 41.52222795 22.24336782 39.09765625 25.43359375 C34.18700019 28.57723741 30.26487625 28.84176002 24.63671875 28.7265625 C23.84615082 28.72231766 23.05558289 28.71807281 22.24105835 28.71369934 C19.73456685 28.69700676 17.22890164 28.65937358 14.72265625 28.62109375 C13.01563667 28.60603467 11.3086044 28.59234841 9.6015625 28.58007812 C5.433279 28.54713431 1.26560736 28.49541868 -2.90234375 28.43359375 C-2.90234375 26.12359375 -2.90234375 23.81359375 -2.90234375 21.43359375 C-1.9486792 21.42424805 -0.99501465 21.41490234 -0.01245117 21.40527344 C3.52708587 21.36538942 7.06575218 21.29963716 10.60473633 21.22607422 C12.13619803 21.19785497 13.66780564 21.17664506 15.19946289 21.16259766 C17.40196474 21.14117949 19.60271084 21.09454237 21.8046875 21.04296875 C22.48916458 21.04174011 23.17364166 21.04051147 23.87886047 21.03924561 C27.03112478 20.94218956 28.70255453 20.79809142 31.0612793 18.62207031 C32.63911798 15.29021026 32.00310962 12.92605674 31.09765625 9.43359375 C26.22318803 6.18394827 20.49621207 7.10058624 14.79150391 7.11791992 C12.60528856 7.12108271 10.42042333 7.0976047 8.234375 7.07226562 C6.84505379 7.06999281 5.45572894 7.06928905 4.06640625 7.0703125 C2.80248047 7.06733154 1.53855469 7.06435059 0.23632812 7.0612793 C-2.82131661 7.20508942 -2.82131661 7.20508942 -4.81518555 8.58911133 C-6.36679018 11.22157775 -6.27423136 13.26426701 -6.265625 16.30859375 C-6.26498047 17.4584375 -6.26433594 18.60828125 -6.26367188 19.79296875 C-6.24755859 20.994375 -6.23144531 22.19578125 -6.21484375 23.43359375 C-6.21806641 24.635 -6.22128906 25.83640625 -6.22460938 27.07421875 C-6.43073734 33.62644402 -6.43073734 33.62644402 -3.90234375 39.43359375 C-1.93244134 39.90786001 -1.93244134 39.90786001 0.36376953 39.8659668 C1.24453156 39.88576096 2.12529358 39.90555511 3.03274536 39.9259491 C4.46093094 39.93553398 4.46093094 39.93553398 5.91796875 39.9453125 C6.89176483 39.9632637 7.86556091 39.9812149 8.86886597 39.99971008 C11.98675167 40.05400007 15.1044827 40.08776866 18.22265625 40.12109375 C20.33335495 40.15425032 22.44403319 40.18873841 24.5546875 40.22460938 C29.73553837 40.30973682 34.91640882 40.37800711 40.09765625 40.43359375 C40.09765625 42.74359375 40.09765625 45.05359375 40.09765625 47.43359375 C33.06851135 47.509698 26.03947283 47.56221648 19.01000977 47.59838867 C16.61901885 47.61346918 14.22805557 47.63393652 11.8371582 47.65991211 C8.3991819 47.69632681 4.96157156 47.71332774 1.5234375 47.7265625 C0.45555496 47.74204636 -0.61232758 47.75753021 -1.71257019 47.77348328 C-11.35021131 47.77566566 -11.35021131 47.77566566 -14.90234375 44.43359375 C-17.7386678 40.06754508 -18.28617357 36.61362448 -18.30078125 31.4609375 C-18.30464844 30.14931641 -18.30851562 28.83769531 -18.3125 27.48632812 C-18.30621582 26.81045654 -18.29993164 26.13458496 -18.29345703 25.43823242 C-18.27735756 23.3728659 -18.29335633 21.30944784 -18.3125 19.24414062 C-18.30863281 17.93380859 -18.30476563 16.62347656 -18.30078125 15.2734375 C-18.29739746 14.08097412 -18.29401367 12.88851074 -18.29052734 11.65991211 C-17.73914835 7.0772244 -16.30778697 4.64662411 -12.83374023 1.64819336 C-8.55805793 -0.12339983 -4.58630631 -0.0146693 0 0 Z " fill="#BA100C" transform="translate(64.90234375,359.56640625)"/>
<path d="M0 0 C7.15319672 -0.10156178 14.30620695 -0.17153366 21.45996094 -0.21972656 C23.89264881 -0.23982071 26.32528851 -0.26710088 28.7578125 -0.30175781 C32.25793355 -0.3503706 35.75741502 -0.37299139 39.2578125 -0.390625 C40.34240753 -0.41127014 41.42700256 -0.43191528 42.54446411 -0.45318604 C48.68442674 -0.45500361 52.34634773 -0.14807269 57 4 C60.11131551 8.40619826 59.59793429 13.84281671 59 19 C56.63773824 24.0879484 54.12052182 25.92446119 49 28 C46.10519455 28.43822101 43.24478071 28.48771048 40.3203125 28.51171875 C39.10116653 28.53864555 39.10116653 28.53864555 37.85739136 28.56611633 C35.2799792 28.61998358 32.7027497 28.65403836 30.125 28.6875 C28.36976638 28.72069399 26.61455679 28.75518557 24.859375 28.79101562 C20.57289383 28.87812276 16.28722564 28.93838972 12 29 C11.67 35.27 11.34 41.54 11 48 C7.37 48 3.74 48 0 48 C-0.10876982 45.14479219 -0.18766466 42.29379439 -0.25 39.4375 C-0.28351563 38.63763672 -0.31703125 37.83777344 -0.3515625 37.01367188 C-0.44749859 31.1375866 0.56387788 27.80191886 4 23 C7.79785368 20.46809754 10.88012844 20.70341311 15.28125 20.69140625 C16.94401404 20.66625389 18.60677437 20.64085576 20.26953125 20.61523438 C22.88980209 20.5864483 25.51000883 20.56242847 28.13037109 20.54370117 C30.6601629 20.52208511 33.18921349 20.48265827 35.71875 20.44140625 C36.50318481 20.44129044 37.28761963 20.44117462 38.0958252 20.4410553 C42.60372269 20.35878238 43.66858804 20.33141196 47 17 C47 14.03 47 11.06 47 8 C23.735 7.505 23.735 7.505 0 7 C0 4.69 0 2.38 0 0 Z " fill="#BC130C" transform="translate(191,360)"/>
<path d="M0 0 C3.18008574 1.32453853 5.77911741 3.30244834 8.5703125 5.296875 C11.60774232 7.19585912 14.78272519 8.48366195 18.08203125 9.8671875 C18.15619192 14.51192732 18.2106374 19.15632249 18.24682617 23.80151367 C18.26191219 25.38165286 18.28238375 26.96175019 18.30834961 28.54174805 C18.34474251 30.81309335 18.36175887 33.08388509 18.375 35.35546875 C18.39048386 36.06181961 18.40596771 36.76817047 18.42192078 37.4959259 C18.42359724 42.38236204 18.42359724 42.38236204 16.74438477 44.76586914 C14.2520835 46.41703245 11.69241778 47.14737566 8.83203125 47.9921875 C7.73375 48.32476562 6.63546875 48.65734375 5.50390625 49 C2.03673225 49.87866738 -1.37656184 50.38675592 -4.91796875 50.8671875 C-4.99393063 44.0862545 -5.04653125 37.3054309 -5.08276367 30.52416992 C-5.09786551 28.21651102 -5.11834844 25.90888089 -5.14428711 23.60131836 C-5.1806085 20.28752551 -5.19768111 16.97411158 -5.2109375 13.66015625 C-5.22642136 12.6256987 -5.24190521 11.59124115 -5.25785828 10.5254364 C-5.25808487 9.5646669 -5.25831146 8.6038974 -5.25854492 7.61401367 C-5.26520676 6.76796066 -5.27186859 5.92190765 -5.2787323 5.05021667 C-4.75738244 1.89545796 -3.37873295 -0.23396521 0 0 Z " fill="#BC1713" transform="translate(219.91796875,229.1328125)"/>
<path d="M0 0 C4.64473982 -0.07416067 9.28913499 -0.12860615 13.93432617 -0.16479492 C15.51446536 -0.17988094 17.09456269 -0.2003525 18.67456055 -0.22631836 C20.94590585 -0.26271126 23.21669759 -0.27972762 25.48828125 -0.29296875 C26.54780754 -0.31619453 26.54780754 -0.31619453 27.6287384 -0.33988953 C32.48892366 -0.34155698 32.48892366 -0.34155698 34.8828125 1.25830078 C36.1397313 3.21784159 36.78601592 4.91045546 37.38671875 7.16015625 C37.7105957 8.3502832 37.7105957 8.3502832 38.04101562 9.56445312 C38.36102539 10.80098633 38.36102539 10.80098633 38.6875 12.0625 C38.91244141 12.89072266 39.13738281 13.71894531 39.36914062 14.57226562 C41 20.66444244 41 20.66444244 41 23 C34.23750813 23.12673206 27.47532217 23.21432235 20.71191406 23.2746582 C18.4110164 23.29980906 16.11019868 23.33393396 13.80957031 23.37719727 C10.50305467 23.43782147 7.19759479 23.46620441 3.890625 23.48828125 C2.3466806 23.52699089 2.3466806 23.52699089 0.77154541 23.56648254 C-6.39692044 23.56930051 -6.39692044 23.56930051 -9.68066406 20.46948242 C-10.11604492 19.65455322 -10.55142578 18.83962402 -11 18 C-10.18595703 16.93072266 -10.18595703 16.93072266 -9.35546875 15.83984375 C-8.64003906 14.88207031 -7.92460937 13.92429688 -7.1875 12.9375 C-6.47980469 11.99777344 -5.77210938 11.05804688 -5.04296875 10.08984375 C-3.49675569 7.75130737 -2.42620735 5.8464648 -1.37231445 3.30688477 C-0.91945068 2.21561279 -0.46658691 1.12434082 0 0 Z " fill="#BC1714" transform="translate(298,210)"/>
<path d="M0 0 C0.12117188 0.96421875 0.24234375 1.9284375 0.3671875 2.921875 C0.61855469 4.81679687 0.61855469 4.81679687 0.875 6.75 C1.11863281 8.62945312 1.11863281 8.62945312 1.3671875 10.546875 C1.81023398 13.86901428 1.81023398 13.86901428 3.0703125 16.140625 C4.33687495 18.67374989 4.34324772 20.1822948 4 23 C2.19580078 25.38769531 2.19580078 25.38769531 -0.3046875 27.828125 C-1.19800781 28.70984375 -2.09132812 29.5915625 -3.01171875 30.5 C-3.95660156 31.4075 -4.90148437 32.315 -5.875 33.25 C-6.81214844 34.17296875 -7.74929687 35.0959375 -8.71484375 36.046875 C-16.66529744 43.82573616 -16.66529744 43.82573616 -20.6328125 44.34375 C-25.18880481 43.8786371 -28.08180023 41.94793706 -31.875 39.5 C-32.56335938 39.07074219 -33.25171875 38.64148438 -33.9609375 38.19921875 C-35.64812861 37.1447243 -37.32513264 36.07396075 -39 35 C-37.68085352 32.09273371 -36.24740014 29.98266069 -34.02246094 27.70019531 C-33.42133484 27.07985413 -32.82020874 26.45951294 -32.2008667 25.82037354 C-31.55192444 25.16293152 -30.90298218 24.5054895 -30.234375 23.828125 C-29.56335754 23.1457074 -28.89234009 22.46328979 -28.20098877 21.76019287 C-26.78152284 20.32186169 -25.35914716 18.88639711 -23.93408203 17.45361328 C-21.75772012 15.25778916 -19.60360543 13.04157905 -17.44921875 10.82421875 C-16.06642948 9.42837334 -14.68235667 8.03379805 -13.296875 6.640625 C-12.65602966 5.97508606 -12.01518433 5.30954712 -11.35491943 4.62384033 C-7.63749887 0.94277536 -5.52520922 -0.90142569 0 0 Z " fill="#BB1310" transform="translate(206,194)"/>
<path d="M0 0 C2.90726629 1.31914648 5.01733931 2.75259986 7.29980469 4.97753906 C7.92014587 5.57866516 8.54048706 6.17979126 9.17962646 6.7991333 C9.83706848 7.44807556 10.4945105 8.09701782 11.171875 8.765625 C11.8542926 9.43664246 12.53671021 10.10765991 13.23980713 10.79901123 C14.67813831 12.21847716 16.11360289 13.64085284 17.54638672 15.06591797 C19.74221084 17.24227988 21.95842095 19.39639457 24.17578125 21.55078125 C25.57162666 22.93357052 26.96620195 24.31764333 28.359375 25.703125 C29.02491394 26.34397034 29.69045288 26.98481567 30.37615967 27.64508057 C34.90632838 32.21999095 34.90632838 32.21999095 35.41503906 36.45605469 C35.27807617 37.29555664 35.14111328 38.13505859 35 39 C33.37191406 39.29003906 33.37191406 39.29003906 31.7109375 39.5859375 C30.26558332 39.84872917 28.82027312 40.11176286 27.375 40.375 C26.66214844 40.50132812 25.94929688 40.62765625 25.21484375 40.7578125 C24.16103516 40.95117188 24.16103516 40.95117188 23.0859375 41.1484375 C22.1276001 41.32125244 22.1276001 41.32125244 21.14990234 41.49755859 C18.36639183 42.14807695 15.7006464 43.0683947 13 44 C10.02439537 41.04909391 7.05207322 38.09493253 4.08276367 35.13769531 C3.07194415 34.13190797 2.06022938 33.12701952 1.04760742 32.12304688 C-0.40681856 30.68073517 -1.85800615 29.23523328 -3.30859375 27.7890625 C-4.18314209 26.91975098 -5.05769043 26.05043945 -5.95874023 25.15478516 C-8.27949673 22.70495896 -8.90931275 21.69458189 -9.34375 18.3671875 C-8.8786371 13.81119519 -6.94793706 10.91819977 -4.5 7.125 C-4.07074219 6.43664062 -3.64148438 5.74828125 -3.19921875 5.0390625 C-2.1447243 3.35187139 -1.07396075 1.67486736 0 0 Z " fill="#BB1310" transform="translate(219,108)"/>
<path d="M0 0 C0.07596188 6.780933 0.1285625 13.5617566 0.16479492 20.34301758 C0.17989676 22.65067648 0.20037969 24.95830661 0.22631836 27.26586914 C0.26263975 30.57966199 0.27971236 33.89307592 0.29296875 37.20703125 C0.30845261 38.2414888 0.32393646 39.27594635 0.33988953 40.3417511 C0.34011612 41.3025206 0.34034271 42.2632901 0.34057617 43.25317383 C0.34723801 44.09922684 0.35389984 44.94527985 0.36076355 45.81697083 C-0.08126379 48.4917382 -0.85408417 49.38984341 -3 51 C-3.66 51 -4.32 51 -5 51 C-5 50.34 -5 49.68 -5 49 C-5.52078125 48.74476563 -6.0415625 48.48953125 -6.578125 48.2265625 C-9.66517892 46.66311906 -12.70521658 45.01918305 -15.75 43.375 C-16.35199219 43.05015625 -16.95398438 42.7253125 -17.57421875 42.390625 C-19.04977297 41.59429415 -20.52492686 40.79722161 -22 40 C-22.07416067 35.35526018 -22.12860615 30.71086501 -22.16479492 26.06567383 C-22.17988094 24.48553464 -22.2003525 22.90543731 -22.22631836 21.32543945 C-22.26271126 19.05409415 -22.27972762 16.78330241 -22.29296875 14.51171875 C-22.30845261 13.80536789 -22.32393646 13.09901703 -22.33988953 12.3712616 C-22.34156391 7.49089147 -22.34156391 7.49089147 -20.68041992 5.10351562 C-18.0079325 3.3485188 -15.19429233 2.65931321 -12.125 1.8125 C-10.91070312 1.46832031 -9.69640625 1.12414062 -8.4453125 0.76953125 C-5.44135037 0.09857826 -3.0439873 -0.06408052 0 0 Z " fill="#BA100E" transform="translate(291,110)"/>
<path d="M0 0 C3.31716187 2.67034739 6.30701473 5.66493409 9.32885742 8.66308594 C10.80659791 10.11918435 12.31103875 11.5433784 13.81835938 12.96875 C14.75099609 13.88914063 15.68363281 14.80953125 16.64453125 15.7578125 C17.50409424 16.5945752 18.36365723 17.43133789 19.24926758 18.29345703 C21 21 21 21 20.88769531 24.59350586 C20.17881315 27.31381192 19.57936319 29.36772802 18.15234375 31.74609375 C17.79462891 32.35517578 17.43691406 32.96425781 17.06835938 33.59179688 C16.69517578 34.20087891 16.32199219 34.80996094 15.9375 35.4375 C15.56044922 36.07365234 15.18339844 36.70980469 14.79492188 37.36523438 C13.87359498 38.91632902 12.93823407 40.45907343 12 42 C9.15101954 40.70665553 7.10820567 39.35207334 4.91552734 37.12670898 C4.34168304 36.54948593 3.76783875 35.97226288 3.17660522 35.37754822 C2.56918488 34.75666824 1.96176453 34.13578827 1.3359375 33.49609375 C0.70265533 32.85761002 0.06937317 32.21912628 -0.58309937 31.56129456 C-2.60187989 29.52472625 -4.61383729 27.48158925 -6.625 25.4375 C-8.64416725 23.39072882 -10.66476901 21.34542734 -12.68832397 19.30299377 C-13.94648149 18.03256434 -15.20195639 16.75947158 -16.45449829 15.48350525 C-19.43156495 12.35670716 -19.43156495 12.35670716 -23 10 C-23 7.69 -23 5.38 -23 3 C-22.04738281 2.87882813 -21.09476563 2.75765625 -20.11328125 2.6328125 C-18.85902344 2.46523437 -17.60476563 2.29765625 -16.3125 2.125 C-15.07113281 1.96257812 -13.82976562 1.80015625 -12.55078125 1.6328125 C-9.07302939 1.14624139 -9.07302939 1.14624139 -6.29296875 -0.1328125 C-3.51192436 -1.18458738 -2.75105951 -1.05462439 0 0 Z " fill="#BA100E" transform="translate(276,239)"/>
<path d="M0 0 C2.72161709 0.7074683 4.77359249 1.30575705 7.15258789 2.7331543 C7.76166992 3.09086914 8.37075195 3.44858398 8.99829102 3.81713867 C9.60737305 4.19032227 10.21645508 4.56350586 10.84399414 4.94799805 C11.48014648 5.32504883 12.11629883 5.70209961 12.77172852 6.09057617 C14.32282316 7.01190307 15.86556757 7.94726398 17.40649414 8.88549805 C16.08734766 11.79276434 14.65389429 13.90283736 12.42895508 16.18530273 C11.52726593 17.11581451 11.52726593 17.11581451 10.60736084 18.06512451 C9.95841858 18.72256653 9.30947632 19.38000854 8.64086914 20.05737305 C7.96985168 20.73979065 7.29883423 21.42220825 6.60748291 22.12530518 C5.18801698 23.56363635 3.7656413 24.99910094 2.34057617 26.43188477 C0.16421426 28.62770889 -1.98990043 30.84391899 -4.14428711 33.0612793 C-5.52707638 34.45712471 -6.91114919 35.8517 -8.29663086 37.24487305 C-8.9374762 37.91041199 -9.57832153 38.57595093 -10.23858643 39.26165771 C-14.81349681 43.79182643 -14.81349681 43.79182643 -19.04956055 44.30053711 C-19.8890625 44.16357422 -20.72856445 44.02661133 -21.59350586 43.88549805 C-21.71467773 43.00506836 -21.83584961 42.12463867 -21.96069336 41.2175293 C-22.12827148 40.05608398 -22.29584961 38.89463867 -22.46850586 37.69799805 C-22.63092773 36.54944336 -22.79334961 35.40088867 -22.96069336 34.2175293 C-23.4572593 30.9377605 -23.4572593 30.9377605 -24.72631836 28.2722168 C-25.8265794 25.24402088 -25.54981485 23.9550591 -24.59350586 20.88549805 C-21.9811287 17.48669821 -18.96096679 14.50971001 -15.93041992 11.48120117 C-14.47220042 10.01421482 -13.04895963 8.51824891 -11.62475586 7.01831055 C-10.24416992 5.62612305 -10.24416992 5.62612305 -8.83569336 4.20581055 C-7.99893066 3.3526123 -7.16216797 2.49941406 -6.30004883 1.62036133 C-3.59350586 -0.11450195 -3.59350586 -0.11450195 0 0 Z " fill="#BA100E" transform="translate(322.593505859375,151.114501953125)"/>
<path d="M0 0 C6.780933 -0.07596188 13.5617566 -0.1285625 20.34301758 -0.16479492 C22.65067648 -0.17989676 24.95830661 -0.20037969 27.26586914 -0.22631836 C30.57966199 -0.26263975 33.89307592 -0.27971236 37.20703125 -0.29296875 C38.2414888 -0.30845261 39.27594635 -0.32393646 40.3417511 -0.33988953 C41.3025206 -0.34011612 42.2632901 -0.34034271 43.25317383 -0.34057617 C44.09922684 -0.34723801 44.94527985 -0.35389984 45.81697083 -0.36076355 C48.46203716 0.07635545 49.33536812 0.95440318 51 3 C49.38110508 7.42082844 47.1328224 10.8913922 44.4375 14.71875 C42.95197371 17.07621564 42.00124723 19.40664076 41 22 C36.35526018 22.07416067 31.71086501 22.12860615 27.06567383 22.16479492 C25.48553464 22.17988094 23.90543731 22.2003525 22.32543945 22.22631836 C20.05409415 22.26271126 17.78330241 22.27972762 15.51171875 22.29296875 C14.45219246 22.31619453 14.45219246 22.31619453 13.3712616 22.33988953 C8.48562277 22.34156571 8.48562277 22.34156571 6.10131836 20.66455078 C4.44117047 18.15537581 3.71863175 15.56714065 2.875 12.6875 C2.54242188 11.57761719 2.20984375 10.46773437 1.8671875 9.32421875 C1.05767051 6.22107028 0.50516235 3.16404259 0 0 Z " fill="#BA0F0D" transform="translate(168,157)"/>
<path d="M0 0 C0.70744354 0.00141495 1.41488708 0.0028299 2.14376831 0.00428772 C4.40578419 0.00989025 6.66770148 0.02244307 8.9296875 0.03515625 C10.46223815 0.04017093 11.99479036 0.04473389 13.52734375 0.04882812 C17.28649638 0.05986048 21.04557522 0.07712673 24.8046875 0.09765625 C24.8046875 2.73765625 24.8046875 5.37765625 24.8046875 8.09765625 C16.2246875 8.42765625 7.6446875 8.75765625 -1.1953125 9.09765625 C-2.60169073 11.91041272 -2.32291106 14.28293634 -2.3359375 17.42578125 C-2.35527344 18.70066406 -2.37460937 19.97554688 -2.39453125 21.2890625 C-2.42341828 23.31458195 -2.44531041 25.33900775 -2.44580078 27.36474609 C-2.46759967 40.08595193 -2.46759967 40.08595193 -5.6171875 43.95703125 C-9.68064599 47.33093315 -12.51561499 47.23226247 -17.609375 47.1953125 C-18.33901459 47.19389755 -19.06865417 47.1924826 -19.82040405 47.19102478 C-22.15374835 47.18542156 -24.48699714 47.1728686 -26.8203125 47.16015625 C-28.40104028 47.15514166 -29.98176957 47.15057868 -31.5625 47.14648438 C-35.44014104 47.13545109 -39.31771057 47.11818436 -43.1953125 47.09765625 C-43.1953125 44.78765625 -43.1953125 42.47765625 -43.1953125 40.09765625 C-42.02959717 40.06792725 -42.02959717 40.06792725 -40.84033203 40.03759766 C-37.33330559 39.94258616 -33.82689456 39.83281066 -30.3203125 39.72265625 C-29.09699219 39.69171875 -27.87367188 39.66078125 -26.61328125 39.62890625 C-25.44667969 39.59023438 -24.28007812 39.5515625 -23.078125 39.51171875 C-21.45994873 39.4645874 -21.45994873 39.4645874 -19.80908203 39.41650391 C-17.03769596 39.35089303 -17.03769596 39.35089303 -15.1953125 37.09765625 C-14.90518058 34.08642659 -14.90518058 34.08642659 -14.95703125 30.55078125 C-14.94160258 29.21743784 -14.92529829 27.88410433 -14.90820312 26.55078125 C-14.89179814 24.45290261 -14.88278508 22.35574954 -14.88989258 20.2578125 C-14.90705479 7.05226889 -14.90705479 7.05226889 -11.77734375 3.20703125 C-7.75580845 -0.07833798 -5.01239928 -0.03751303 0 0 Z " fill="#BB100C" transform="translate(453.1953125,359.90234375)"/>
<path d="M0 0 C0.85857101 0.00424484 1.71714203 0.00848969 2.60173035 0.01286316 C5.33246789 0.0295988 8.06245587 0.06724109 10.79296875 0.10546875 C12.64907785 0.12052222 14.50519857 0.13420947 16.36132812 0.14648438 C20.9013286 0.17948552 25.44077177 0.23123216 29.98046875 0.29296875 C29.98046875 2.60296875 29.98046875 4.91296875 29.98046875 7.29296875 C28.9860376 7.3180249 27.99160645 7.34308105 26.96704102 7.36889648 C23.28998128 7.46281757 19.61311725 7.56307494 15.9362793 7.6652832 C14.34257575 7.70869021 12.74882395 7.75036094 11.1550293 7.7902832 C8.86882967 7.84784682 6.58287426 7.91158024 4.296875 7.9765625 C3.22186485 8.00163124 3.22186485 8.00163124 2.12513733 8.02720642 C-1.23480507 7.84315529 -1.23480507 7.84315529 -4.01953125 9.29296875 C-4.17970291 12.10273393 -4.27903659 14.89070471 -4.3359375 17.703125 C-4.3567186 18.54515976 -4.37749969 19.38719452 -4.39891052 20.25474548 C-4.46449937 22.95490054 -4.52333401 25.65515592 -4.58203125 28.35546875 C-4.62520762 30.18165116 -4.66882161 32.00782329 -4.71289062 33.83398438 C-4.82019019 38.32020867 -4.92143091 42.80653425 -5.01953125 47.29296875 C-8.97953125 47.29296875 -12.93953125 47.29296875 -17.01953125 47.29296875 C-17.09381887 41.83035237 -17.14819839 36.36803159 -17.18432617 30.9050293 C-17.19939071 29.0475553 -17.21984634 27.19011674 -17.24584961 25.33276367 C-17.28233584 22.65925336 -17.29928095 19.98621431 -17.3125 17.3125 C-17.32798386 16.48522903 -17.34346771 15.65795807 -17.35942078 14.80561829 C-17.36077018 10.15801328 -17.14436882 6.99183417 -14.01953125 3.29296875 C-9.6634543 -0.38708752 -5.42297989 -0.10150077 0 0 Z " fill="#BA0F0C" transform="translate(274.01953125,359.70703125)"/>
<path d="M0 0 C1.3569976 -0.01441132 1.3569976 -0.01441132 2.7414093 -0.02911377 C3.72159531 -0.03336365 4.70178131 -0.03761353 5.71166992 -0.04199219 C7.22116463 -0.0505423 7.22116463 -0.0505423 8.76115417 -0.05926514 C10.89381862 -0.06872304 13.02649774 -0.07525225 15.15917969 -0.07910156 C18.41847343 -0.08879679 21.67713393 -0.11980878 24.9362793 -0.15136719 C27.00723909 -0.15789819 29.0782034 -0.16314828 31.14916992 -0.16699219 C32.12328323 -0.17933899 33.09739655 -0.19168579 34.10102844 -0.20440674 C42.68571322 -0.17622287 42.68571322 -0.17622287 46.62963867 3.16113281 C49.15739218 6.95276308 48.85406902 9.96987312 48.75463867 14.34863281 C48.74561523 15.09822266 48.7365918 15.8478125 48.72729492 16.62011719 C48.70376445 18.46725936 48.66789428 20.31423693 48.62963867 22.16113281 C45.98963867 22.16113281 43.34963867 22.16113281 40.62963867 22.16113281 C40.29963867 17.54113281 39.96963867 12.92113281 39.62963867 8.16113281 C26.09963867 8.16113281 12.56963867 8.16113281 -1.37036133 8.16113281 C-1.70036133 12.78113281 -2.03036133 17.40113281 -2.37036133 22.16113281 C-5.34036133 22.16113281 -8.31036133 22.16113281 -11.37036133 22.16113281 C-12.23148714 7.12013524 -12.23148714 7.12013524 -8.99536133 3.28613281 C-5.66841356 0.59288938 -4.17265408 0.03571797 0 0 Z " fill="#BA0E0C" transform="translate(128.370361328125,384.8388671875)"/>
<path d="M0 0 C2.64 0 5.28 0 8 0 C8.06058594 0.85464844 8.12117188 1.70929688 8.18359375 2.58984375 C8.26738281 3.69457031 8.35117188 4.79929687 8.4375 5.9375 C8.51871094 7.03964844 8.59992188 8.14179688 8.68359375 9.27734375 C8.70418084 11.91109903 8.70418084 11.91109903 10 13 C12.9453557 13.10110353 15.8667756 13.13969279 18.8125 13.1328125 C20.13858276 13.13424759 20.13858276 13.13424759 21.49145508 13.13571167 C23.36442129 13.13639351 25.23738986 13.13453893 27.11035156 13.13037109 C29.98768388 13.12502289 32.86486008 13.13031593 35.7421875 13.13671875 C37.55729201 13.13605797 39.37239643 13.13477681 41.1875 13.1328125 C42.48747925 13.13584885 42.48747925 13.13584885 43.8137207 13.13894653 C47.72003219 13.51260414 47.72003219 13.51260414 51 12 C51.23427778 9.98405418 51.41336124 7.961526 51.5625 5.9375 C51.64628906 4.83277344 51.73007813 3.72804688 51.81640625 2.58984375 C51.90728516 1.30787109 51.90728516 1.30787109 52 0 C54.64 0 57.28 0 60 0 C60.13572155 2.39774745 60.23436868 4.78775245 60.3125 7.1875 C60.35439453 7.86103516 60.39628906 8.53457031 60.43945312 9.22851562 C60.53676648 13.21836318 60.16454409 14.7989502 57.60546875 17.92578125 C54.2860988 20.56833814 52.77081889 21.12568426 48.62963867 21.16113281 C47.7249736 21.17074036 46.82030853 21.1803479 45.88822937 21.19024658 C44.90804337 21.19449646 43.92785736 21.19874634 42.91796875 21.203125 C41.40847404 21.21167511 41.40847404 21.21167511 39.8684845 21.22039795 C37.73582005 21.22985585 35.60314093 21.23638506 33.47045898 21.24023438 C30.21116524 21.2499296 26.95250474 21.28094159 23.69335938 21.3125 C21.62239958 21.31903101 19.55143527 21.32428109 17.48046875 21.328125 C16.50635544 21.3404718 15.53224213 21.3528186 14.52861023 21.36553955 C5.96681226 21.33743082 5.96681226 21.33743082 2 18 C-0.24270696 14.11219363 -0.21432131 10.608905 -0.125 6.1875 C-0.10695313 5.02605469 -0.08890625 3.86460937 -0.0703125 2.66796875 C-0.04710938 1.78753906 -0.02390625 0.90710938 0 0 Z " fill="#BA0E0C" transform="translate(117,360)"/>
<path d="M0 0 C-5.66574049 6.92810724 -12.03033639 13.14204142 -18.375 19.4375 C-19.50413955 20.56161467 -20.63304778 21.68596174 -21.76171875 22.81054688 C-24.50515188 25.54305235 -27.25169985 28.27239009 -30 31 C-31.98 30.01 -33.96 29.02 -36 28 C-36.46292448 24.51047452 -36.16914167 23.23785615 -34.0949707 20.32104492 C-31.71532638 17.78860536 -29.33131489 15.26658241 -26.88745117 12.79614258 C-25.32915787 11.20451422 -23.82542618 9.57164757 -22.31835938 7.93164062 C-15.48110821 0.80386768 -10.13469962 -1.6533672 0 0 Z " fill="#BD1A14" transform="translate(191,194)"/>
<path d="M0 0 C6.08811094 5.04171687 11.78059966 10.46223876 17.40966797 16.00463867 C18.47811174 17.05126743 19.55278528 18.09157087 20.63330078 19.12573242 C22.20763556 20.63342241 23.76160156 22.15966385 25.3125 23.69140625 C26.23675781 24.59060791 27.16101563 25.48980957 28.11328125 26.41625977 C30 29 30 29 29.85546875 31.70678711 C29 34 29 34 28 36 C24.51047452 36.46292448 23.23785615 36.16914167 20.32104492 34.0949707 C17.78860536 31.71532638 15.26658241 29.33131489 12.79614258 26.88745117 C11.20451422 25.32915787 9.57164757 23.82542618 7.93164062 22.31835938 C0.39689541 15.09072378 0.39689541 15.09072378 -0.69677734 9.32958984 C-0.69894351 6.13622197 -0.51366727 3.14864326 0 0 Z " fill="#BD1914" transform="translate(253,257)"/>
<path d="M0 0 C6.49691022 0.46350645 10.38074836 5.45048995 14.77661133 9.76074219 C16.29773979 11.23568792 17.85782898 12.65893528 19.42382812 14.0859375 C23.41105784 17.88580518 26.64306978 21.05063203 27.66552734 26.63476562 C27.66769593 29.83213527 27.48802307 32.84291251 27 36 C20.07189276 30.33425951 13.85795858 23.96966361 7.5625 17.625 C6.43838533 16.49586045 5.31403826 15.36695222 4.18945312 14.23828125 C1.45694765 11.49484812 -1.27239009 8.74830015 -4 6 C-1.125 1.125 -1.125 1.125 0 0 Z " fill="#BD1A15" transform="translate(227,96)"/>
<path d="M0 0 C2.29321289 0.91796875 2.29321289 0.91796875 4.29321289 2.91796875 C4.02143491 9.36583274 -1.21983933 13.36252201 -5.4675293 17.69458008 C-6.94247503 19.21570854 -8.36572239 20.77579773 -9.79272461 22.34179688 C-13.59259229 26.32902659 -16.75741914 29.56103853 -22.34155273 30.58349609 C-25.53892238 30.58566468 -28.54969962 30.40599182 -31.70678711 29.91796875 C-26.66507024 23.82985781 -21.24454835 18.13736909 -15.70214844 12.50830078 C-14.65551968 11.43985701 -13.61521624 10.36518347 -12.58105469 9.28466797 C-11.0733647 7.71033319 -9.54712326 6.15636719 -8.01538086 4.60546875 C-7.1161792 3.68121094 -6.21697754 2.75695312 -5.29052734 1.8046875 C-2.70678711 -0.08203125 -2.70678711 -0.08203125 0 0 Z " fill="#BC1611" transform="translate(347.706787109375,165.08203125)"/>
<path d="M0 0 C0 14.19 0 28.38 0 43 C-2.70879335 44.35439668 -5.00933268 44.06501451 -8 44 C-10.28755368 39.42489263 -9.43688914 32.83714243 -9.51489258 27.76220703 C-9.5464248 26.18106814 -9.59406867 24.60016189 -9.65844727 23.02001953 C-10.18508996 9.90482877 -10.18508996 9.90482877 -7.21435547 5.12988281 C-2.15116792 0 -2.15116792 0 0 0 Z " fill="#BB110F" transform="translate(209,239)"/>
<path d="M0 0 C14.19 0 28.38 0 43 0 C43.495 3.465 43.495 3.465 44 7 C41.18575084 9.81424916 38.42626771 9.39776258 34.6484375 9.4765625 C33.91557526 9.49270599 33.18271301 9.50884949 32.42764282 9.52548218 C30.87259374 9.55316649 29.31742306 9.57460981 27.76220703 9.59033203 C25.40285951 9.62459541 23.0492513 9.71228172 20.69140625 9.80078125 C9.64365536 10.02511748 9.64365536 10.02511748 5.12988281 7.20996094 C3.130612 5.23712385 1.48508352 3.38008028 0 1 C0 0.67 0 0.34 0 0 Z " fill="#BA100E" transform="translate(298,239)"/>
<path d="M0 0 C2.69427681 2.69427681 1.45721075 11.38980685 1.51489258 15.16235352 C1.54639038 16.75032726 1.5939973 18.3380709 1.65844727 19.92504883 C2.18575362 33.09118634 2.18575362 33.09118634 -0.78564453 37.87451172 C-2.75990488 39.8743374 -4.61667497 41.51754445 -7 43 C-7.33 43 -7.66 43 -8 43 C-8 28.81 -8 14.62 -8 0 C-4.69676014 -1.10107995 -3.29495231 -0.86709271 0 0 Z " fill="#BC1712" transform="translate(306,107)"/>
<path d="M0 0 C1.1099659 -0.01354271 1.1099659 -0.01354271 2.24235535 -0.02735901 C3.81004788 -0.04187764 5.37780123 -0.05075226 6.94555664 -0.05444336 C9.33650001 -0.06631209 11.72483833 -0.11545003 14.11523438 -0.16601562 C15.63931034 -0.1754833 17.16340214 -0.18271669 18.6875 -0.1875 C19.75494194 -0.21679848 19.75494194 -0.21679848 20.84394836 -0.24668884 C24.66719531 -0.21220657 26.34982699 0.21367725 29.34643555 2.65600586 C31.12658429 4.85640979 32.84477721 7.10683836 34.54296875 9.37109375 C20.35296875 9.37109375 6.16296875 9.37109375 -8.45703125 9.37109375 C-8.78703125 7.06109375 -9.11703125 4.75109375 -9.45703125 2.37109375 C-6.6159315 -0.470006 -3.80804326 0.02845392 0 0 Z " fill="#BC1612" transform="translate(174.45703125,140.62890625)"/>
</svg>
